<?xml version="1.0" standalone="no"?>
<!DOCTYPE svg PUBLIC "-//W3C//DTD SVG 20010904//EN"
 "http://www.w3.org/TR/2001/REC-SVG-20010904/DTD/svg10.dtd">
<svg version="1.0" xmlns="http://www.w3.org/2000/svg"
 width="260.000000pt" height="260.000000pt" viewBox="0 0 260.000000 260.000000"
 preserveAspectRatio="xMidYMid meet">
<metadata>
Created by potrace 1.11, written by Peter Selinger 2001-2013
</metadata>
<g transform="translate(0.000000,260.000000) scale(0.100000,-0.100000)"
fill="#000000" stroke="none">
<path d="M85 2417 c-46 -26 -85 -87 -85 -136 0 -49 34 -112 76 -140 34 -24 44
-25 189 -26 85 0 156 -3 158 -5 3 -3 7 -32 11 -65 3 -33 8 -73 10 -90 6 -37
27 -199 31 -240 12 -116 16 -152 20 -170 2 -11 7 -47 10 -80 4 -33 8 -67 10
-75 2 -8 7 -42 10 -75 4 -33 8 -71 11 -85 2 -14 6 -50 9 -80 6 -53 8 -72 20
-158 14 -94 35 -132 93 -161 35 -18 73 -19 772 -17 l735 1 36 25 c20 13 42 33
48 43 9 14 290 977 306 1048 2 9 13 49 25 90 26 85 23 134 -12 185 -77 113
-252 80 -288 -55 l-10 -37 -754 0 c-415 1 -757 3 -759 6 -3 3 -8 30 -12 60
-19 163 -37 205 -105 240 -34 17 -60 19 -276 19 -229 0 -241 -1 -279 -22z
m1027 -466 l27 -1 -1 -80 -1 -80 -51 -1 c-96 -1 -290 1 -292 4 -1 1 -5 29 -8
62 -4 33 -9 68 -12 77 -4 13 3 17 28 20 27 2 179 2 310 -1z m514 -81 l-1 -80
-52 -1 c-29 0 -82 0 -118 0 -36 0 -85 0 -110 0 l-45 1 0 80 0 80 163 0 163 0
0 -80z m589 63 c-2 -10 -12 -46 -22 -80 -20 -73 11 -64 -242 -64 -84 0 -155 2
-158 5 -6 6 -10 146 -4 152 2 2 100 4 217 4 198 0 213 -1 209 -17z m-1080
-388 l0 -80 -150 0 -150 0 -11 75 c-6 41 -9 78 -8 81 2 3 74 5 161 5 l158 -1
0 -80z m486 76 c3 0 6 -37 5 -80 l-1 -79 -162 1 -163 0 0 77 c0 42 2 79 5 82
4 4 299 4 316 -1z m509 5 c0 -1 -11 -37 -23 -81 l-23 -80 -147 -1 c-81 0 -147
2 -148 5 -1 10 -1 135 0 147 1 6 59 10 171 11 94 0 170 0 170 -1z m-992 -406
c-1 -44 -4 -80 -7 -81 -22 -4 -244 -3 -250 1 -8 6 -29 149 -22 155 2 3 66 5
142 5 l139 0 -2 -80z m486 3 c-1 -43 -2 -80 -3 -83 0 -3 -73 -5 -161 -5 l-160
0 0 83 0 82 163 0 163 0 -2 -77z m391 1 c-12 -42 -27 -79 -32 -82 -6 -4 -53
-7 -104 -6 l-93 0 -1 75 c0 41 1 77 3 82 2 4 58 7 126 7 l123 0 -22 -76z"/>
<path d="M812 631 c-61 -21 -94 -49 -129 -108 -90 -154 19 -352 200 -359 218
-9 337 252 185 408 -69 71 -159 92 -256 59z"/>
<path d="M1795 636 c-83 -31 -135 -86 -159 -168 -32 -109 22 -230 127 -283 41
-21 134 -27 184 -12 56 17 138 101 153 157 43 160 -61 308 -220 315 -30 1 -69
-3 -85 -9z"/>
</g>
</svg>
